<?xml version="1.0" standalone="no"?>
<!DOCTYPE svg PUBLIC "-//W3C//DTD SVG 20010904//EN"
 "http://www.w3.org/TR/2001/REC-SVG-20010904/DTD/svg10.dtd">
<svg version="1.0" xmlns="http://www.w3.org/2000/svg"
 width="1024.000000pt" height="1024.000000pt" viewBox="0 0 1024.000000 1024.000000"
 preserveAspectRatio="xMidYMid meet">
<metadata>
Created by potrace 1.14, written by Peter Selinger 2001-2017
</metadata>
<g transform="translate(0.000000,1024.000000) scale(0.100000,-0.100000)"
fill="#000000" stroke="none">
<path d="M4009 9258 c-1 -19 -5 -48 -12 -93 -4 -22 -9 -58 -12 -80 -2 -22 -11
-85 -19 -140 -8 -55 -18 -120 -21 -145 -3 -25 -8 -56 -10 -70 -2 -14 -9 -61
-15 -105 -11 -83 -15 -108 -30 -215 -5 -36 -12 -83 -14 -105 -3 -22 -8 -51
-11 -64 -2 -13 -7 -47 -10 -75 -2 -28 -7 -62 -10 -76 -3 -14 -7 -45 -10 -70
-3 -25 -7 -58 -10 -75 -3 -16 -7 -46 -9 -65 -3 -19 -21 -145 -40 -280 -19
-135 -40 -279 -45 -320 -6 -41 -12 -84 -15 -95 -2 -11 -7 -49 -11 -85 -4 -36
-8 -67 -10 -70 -2 -3 -6 -32 -9 -65 -4 -32 -11 -62 -16 -65 -5 -3 -260 -6
-566 -5 -514 0 -557 -1 -563 -17 -5 -13 -7 -1036 -2 -1058 0 -3 218 -5 484 -5
265 1 488 -1 495 -3 9 -3 12 -16 7 -41 -3 -20 -8 -54 -10 -75 -3 -22 -7 -51
-10 -66 -3 -15 -7 -42 -9 -61 -3 -19 -12 -84 -21 -144 -9 -61 -18 -123 -20
-140 -14 -99 -27 -193 -31 -215 -2 -14 -22 -151 -44 -305 -23 -154 -43 -290
-45 -301 -2 -12 -6 -47 -10 -77 -4 -31 -12 -57 -19 -59 -6 -2 -262 -3 -568 -3
-388 1 -558 -2 -559 -9 -3 -28 -4 -1043 -1 -1056 3 -13 66 -15 498 -15 l495 1
-6 -46 c-11 -83 -16 -114 -30 -210 -8 -52 -17 -117 -20 -145 -3 -27 -8 -59
-10 -70 -2 -11 -7 -42 -10 -70 -4 -27 -17 -124 -30 -215 -13 -91 -27 -187 -30
-215 -3 -27 -8 -61 -10 -75 -9 -47 -27 -180 -40 -275 -1 -11 -5 -38 -9 -60 -3
-22 -8 -60 -11 -85 -3 -25 -7 -52 -9 -60 -3 -8 -7 -40 -11 -71 -3 -31 -8 -67
-10 -80 -3 -12 -7 -43 -10 -68 -3 -25 -7 -55 -9 -66 -2 -11 -7 -42 -10 -70 -4
-27 -13 -95 -21 -150 -8 -55 -17 -122 -21 -150 -3 -27 -8 -59 -10 -70 -2 -11
-7 -44 -10 -72 l-7 -53 582 0 c319 0 581 3 582 8 0 4 2 14 4 23 1 8 6 42 10
75 4 32 9 68 11 79 1 11 14 102 28 203 14 101 28 195 30 210 3 15 8 47 11 72
3 25 8 56 10 70 7 52 17 116 20 140 3 14 7 45 10 70 3 25 14 108 25 185 11 77
23 158 26 180 3 22 7 54 10 70 3 17 7 48 9 70 3 22 7 51 10 65 3 14 7 45 10
70 3 25 17 124 30 220 14 96 28 193 31 215 7 53 13 94 19 125 2 14 7 45 10 70
3 25 9 70 13 100 l7 55 578 0 c514 1 577 -1 573 -15 -2 -8 -8 -42 -12 -75 -3
-33 -8 -69 -10 -80 -1 -11 -6 -42 -9 -70 -3 -27 -8 -61 -10 -75 -3 -14 -7 -47
-10 -75 -3 -27 -10 -75 -15 -105 -5 -30 -12 -84 -16 -120 -4 -36 -8 -67 -9
-70 -1 -3 -5 -30 -9 -60 -4 -30 -9 -66 -11 -80 -5 -31 -13 -90 -21 -155 -3
-27 -7 -57 -9 -65 -1 -8 -6 -40 -10 -70 -3 -30 -8 -66 -10 -80 -11 -78 -25
-180 -30 -215 -4 -37 -50 -369 -60 -440 -2 -16 -7 -52 -10 -80 -4 -27 -10 -77
-15 -110 -5 -33 -12 -82 -15 -110 -4 -27 -8 -61 -10 -75 -2 -14 -7 -45 -10
-70 -3 -25 -8 -53 -11 -62 -5 -17 27 -18 580 -18 579 0 586 0 587 20 1 11 2
23 3 28 1 4 6 36 10 72 5 36 10 74 12 85 2 11 6 40 9 65 3 25 7 56 10 70 2 14
7 45 10 70 6 61 14 117 21 165 10 69 13 89 18 130 18 137 38 277 40 292 2 10
7 45 10 78 4 33 15 119 26 190 18 127 46 330 56 410 2 22 7 51 9 65 5 29 13
87 20 150 3 25 7 56 10 70 3 14 7 45 10 70 8 67 15 122 20 150 3 14 8 48 11
75 3 28 7 59 9 70 1 11 3 27 4 35 1 14 59 16 509 15 279 0 514 1 522 3 14 3
16 64 14 535 -1 293 -2 534 -3 537 0 3 -193 5 -428 5 -236 0 -434 1 -441 3
-12 4 -10 71 3 122 2 8 7 40 10 70 7 64 14 114 20 150 3 14 7 45 10 70 3 25 7
56 10 70 2 14 7 48 10 75 3 28 7 64 10 80 2 17 13 98 24 180 30 216 32 227 36
256 3 14 7 43 10 65 2 21 12 91 21 154 8 63 17 131 20 150 2 19 8 37 13 40 5
3 239 5 520 5 281 -1 512 2 512 5 1 3 2 244 3 537 2 471 0 532 -14 535 -8 2
-208 3 -443 3 l-428 -1 5 51 c4 27 8 61 11 75 2 14 9 63 15 110 6 47 13 96 15
110 2 14 9 63 15 110 6 47 13 96 15 110 4 25 22 162 30 218 1 16 8 62 14 103
6 41 13 94 16 119 3 25 10 77 16 115 14 101 18 134 25 185 3 25 7 56 9 70 2
14 6 45 10 70 3 25 10 77 15 115 23 158 50 353 55 400 4 28 8 61 10 75 2 14 6
43 9 65 3 22 13 89 21 149 8 60 15 113 15 118 0 4 -262 7 -582 6 -572 -3 -581
-3 -584 -23 -2 -11 -6 -40 -9 -65 -3 -25 -12 -92 -20 -150 -8 -58 -17 -123
-20 -145 -2 -22 -9 -71 -15 -110 -5 -38 -12 -90 -15 -115 -3 -25 -8 -56 -10
-70 -5 -29 -13 -87 -20 -150 -3 -25 -7 -56 -10 -70 -4 -23 -8 -55 -21 -155 -2
-22 -7 -51 -9 -65 -3 -14 -7 -44 -10 -67 -3 -24 -7 -62 -10 -85 -3 -24 -7 -54
-10 -68 -5 -27 -12 -79 -20 -150 -3 -25 -7 -56 -10 -70 -2 -14 -7 -47 -10 -75
-7 -62 -14 -112 -20 -145 -2 -14 -7 -43 -10 -65 -5 -40 -50 -384 -61 -460 -3
-22 -7 -47 -10 -55 -4 -14 -69 -16 -578 -15 -316 0 -577 2 -580 5 -3 3 -1 35
4 70 5 36 12 81 14 100 3 19 12 85 21 146 9 60 17 121 20 135 2 13 13 92 25
174 24 174 29 209 35 250 3 17 7 48 10 70 3 22 7 54 10 70 7 47 15 102 20 153
3 26 8 54 10 62 2 8 7 38 10 66 3 28 7 59 9 70 2 10 7 42 10 69 7 54 13 98 21
145 10 66 15 107 20 150 3 25 10 72 15 105 5 33 12 80 15 104 3 23 7 55 9 70
3 14 10 62 16 107 6 44 12 91 15 103 2 13 7 49 11 80 3 31 8 59 11 64 2 4
-259 7 -581 7 -462 0 -586 -3 -587 -12z m1834 -3464 c-2 -30 -23 -187 -27
-211 -3 -12 -7 -46 -10 -75 -4 -29 -8 -62 -10 -73 -2 -11 -7 -47 -11 -80 -4
-32 -8 -66 -10 -75 -1 -8 -6 -37 -9 -65 -9 -73 -17 -127 -21 -155 -2 -14 -11
-79 -20 -145 -9 -66 -18 -131 -20 -145 -3 -20 -16 -114 -39 -280 -1 -8 -6 -47
-10 -87 -7 -62 -11 -72 -30 -75 -11 -2 -273 -3 -581 -3 l-560 1 1 30 c1 27 8
74 19 134 2 14 7 45 10 70 3 25 7 56 10 70 2 14 9 61 15 105 6 44 12 91 15
105 2 14 9 61 15 105 6 44 13 91 15 105 13 83 24 161 30 205 7 60 53 374 60
413 2 15 7 49 10 77 4 27 10 54 15 60 5 7 200 10 577 9 556 0 568 -1 566 -20z"/>
</g>
</svg>
